<?xml version="1.0" encoding="UTF-8"?>
<svg width="77.146mm" height="77.146mm" version="1.1" viewBox="0 0 77.146 77.146" xmlns="http://www.w3.org/2000/svg" xmlns:cc="http://creativecommons.org/ns#" xmlns:dc="http://purl.org/dc/elements/1.1/" xmlns:rdf="http://www.w3.org/1999/02/22-rdf-syntax-ns#">
 <metadata>
  <rdf:RDF>
   <cc:Work rdf:about="">
    <dc:format>image/svg+xml</dc:format>
    <dc:type rdf:resource="http://purl.org/dc/dcmitype/StillImage"/>
    <dc:title/>
   </cc:Work>
  </rdf:RDF>
 </metadata>
 <g transform="translate(-60.678 -84.974)">
  <circle cx="99.251" cy="123.55" r="38.573" fill="#5069df" stop-color="#000000" style="font-variation-settings:normal;paint-order:normal"/>
  <g shape-rendering="auto">
   <path d="m110.31 140.7c-0.77708-0.0209-1.526-0.3087-2.1329-0.8191l-0.10091-0.0835-0.36468 0.73059-1.9172-1.0587-0.0993 0.0726-1.5644 1.1439-0.18631-0.28097-0.12753 0.0568-0.0826-0.20665-2e-3 2e-3 -0.87359-0.69762c-0.31117-0.24952-0.58117-0.55117-0.7989-0.89299l-1.0992 0.62163-0.38893 0.6233-0.32138-0.22085-1.2716 0.71974-0.524-1.0228c-0.27554-0.53699-0.42178-1.1363-0.42626-1.7463l-3e-3 -0.40871-0.52837-0.87421c-0.0434-0.0726-0.0845-0.14689-0.12315-0.22252l-0.0302 0.0142-8e-3 0.172-1.1457-0.0568-1.506 0.88673 0.0286 0.20374 0.38694 0.51392 0.20022 0.87462-0.40838-0.1123 0.0779 0.55859-1.2295 0.19079c-0.61121 0.0943-1.2352 0.0201-1.8107-0.21584l-0.93874-0.38534-1.3241 0.82537-0.58875-1.0429c-0.0596-0.10547-0.11423-0.21412-0.16368-0.32522l-1.1333 0.61411-0.68329-1.3919c-0.37659-0.76814-0.48834-1.6494-0.31662-2.4945l1e-3 -7e-3 -0.26418-0.20832 0.42666-0.59492 0.0135-0.0626-8e-3 -0.0221-1.0814-0.77777c-0.1558-0.11169-0.30275-0.23622-0.43977-0.37239l-0.9443 0.29056c-0.20993 0.0643-0.4252 0.10786-0.64278 0.13068l-0.23876 0.48135-0.0179 0.63918-0.29755-0.01-0.66065 1.3255-0.99992-0.55066c-0.4654-0.25646-0.87075-0.61801-1.1874-1.0587l-0.10686-0.14695-0.15017 0.0476-0.0238-0.0822-0.48944 0.0397-0.60424 1.0003-0.10408-0.0559-0.11958 0.24464-0.40243 0.65796-2.1695 1.7221-0.9308-0.93892c-0.32643-0.33011-0.58989-0.72249-0.77626-1.1564l-0.55657-0.86878-0.0167-0.13902-0.0902 7e-3 -0.0302-0.39286-1.6185 0.2338-0.10647-0.80951-0.0588-0.0626 0.0512 9e-3 -0.0421-0.32355c-0.0507-0.38777-0.0411-0.779 0.023-1.1602l-0.95701-0.47301 0.0508-0.11523-0.033-0.31561c-0.0344-0.32883-0.0246-0.65852 0.023-0.9815l-0.5526-0.0109-0.4926-0.7715 0.25981-0.033-0.37423-0.91345c-0.0693-0.16993-0.12616-0.34511-0.17082-0.52394-0.32645-0.0118-0.64984-0.0709-0.96099-0.17534l-0.97012-0.32814 0.75361-2.4631c-7e-3 -6e-3 -0.013-0.0136-0.0195-0.0205l-0.0314-0.0346-1.1382-0.22085 0.2312-1.3067c0.12715-0.72067 0.45317-1.386 0.93716-1.9137l-0.45209-0.30602-0.39648 0.0376-0.027-0.32355-1.4655-0.98901 0.53154-0.86795-0.71031-0.79697 0.0393-0.0392-1.1171-0.99737 0.29716-0.36738 0.0902-0.29683-0.31821-0.8333 0.7838-0.32939c0.0967-0.16262 0.20495-0.31743 0.32417-0.46257l0.0437-0.26176-1.1533-0.67549 0.50612-0.95311c0.25927-0.48841 0.61936-0.90959 1.0539-1.2324l0.63801-0.47469 0.1605-0.59115c-0.32718-0.6824-0.44809-1.4535-0.34562-2.2102l0.1593-1.1802 2.3542 0.35361-0.10806-0.68342 1.2311-0.21291c0.31909-0.0555 0.6442-0.065 0.96575-0.0284l-0.0886-0.33609c-0.14231-0.54224-0.16655-1.1115-0.0707-1.6649l0.18314-1.0588 0.9312 0.17828c0.21201-0.38556 0.48775-0.73206 0.81995-1.0191l0.84975-0.73518 1.2943 1.6532 0.10527-0.13317 0.0691-1.1719-0.0373-0.85125 0.56054-0.28306 0.42826 0.36447 1.3165 2e-3 2.5151 1.4541 0.68847-0.53813 0.70792 1.2495 0.32576 0.16741-0.0552-0.20832 0.23995 0.20206-0.12435 0.0363 0.42786 0.21751 8e-3 7e-3v-3e-3l0.49539 0.25383 0.0918-9e-3 -0.0107-0.76399v-0.0914l-0.1164-0.77025-0.38098-0.55358-0.091-0.4847-0.1311-0.7093-0.16963-1.6411 0.7417 0.10562 0.3043-1.4482 0.83863-1.0496c0.0464-7.9e-4 0.093-7.9e-4 0.13944 0h7.9e-4c0.77707 0.0209 1.526 0.30869 2.1329 0.81909l0.1009 0.0835 0.36469-0.73059 1.9172 1.0587 0.0993-0.0726 1.5644-1.1439 0.18632 0.28097 0.12752-0.0568 0.0826 0.20665 2e-3 -2e-3 0.87359 0.69761c0.31117 0.24952 0.58117 0.55118 0.7989 0.893l1.0992-0.62163 0.38893-0.6233 0.32139 0.22084 1.2716-0.71973 0.524 1.0228c0.27554 0.53698 0.42178 1.1363 0.42626 1.7463l3e-3 0.40872 0.52836 0.87421c0.0434 0.0726 0.0845 0.14689 0.12315 0.22251l0.0302-0.0142 8e-3 -0.172 1.1457 0.0568 1.506-0.88673-0.0286-0.20373-0.38694-0.51392-0.20022-0.87462 0.40839 0.1123-0.0779-0.55859 1.2295-0.19079c0.61123-0.0943 1.2352-0.0201 1.8107 0.21584l0.93874 0.38533 1.3241-0.82536 0.58874 1.0429c0.0596 0.10547 0.11423 0.21411 0.16368 0.32522l1.1334-0.61412 0.68329 1.3919c0.3766 0.76814 0.48834 1.6494 0.31663 2.4944l-2e-3 7e-3 0.26418 0.20833-0.42667 0.59491-0.0135 0.063 8e-3 0.0221 1.0814 0.77776c0.15581 0.11169 0.30276 0.23622 0.43978 0.3724l0.9443-0.29056c0.20992-0.0643 0.4252-0.10786 0.64278-0.13067l0.23875-0.48137 0.0179-0.63916 0.29755 0.01 0.66065-1.3255 0.99992 0.55066c0.4654 0.25647 0.87076 0.61802 1.1874 1.0588l0.10687 0.14695 0.15016-0.0476 0.0238 0.0822 0.48943-0.0392 0.60424-1.0003 0.10369 0.0559 0.11997-0.24506 0.40243-0.65795 2.1695-1.7221 0.93079 0.93892c0.32643 0.33011 0.5899 0.72249 0.77627 1.1564l0.55656 0.86878 0.0167 0.13902 0.0902-7e-3 0.0302 0.39285 1.6185-0.23379 0.10647 0.8095 0.0588 0.063-0.0513-9e-3 0.0421 0.32355c0.0507 0.38773 0.0411 0.77861-0.023 1.1598l0.95701 0.47301-0.0509 0.11522 0.033 0.31562c0.0344 0.32897 0.0247 0.6588-0.023 0.98192l0.55261 0.0109 0.4926 0.77151-0.25981 0.033 0.37423 0.91345c0.0693 0.16994 0.12617 0.34512 0.17082 0.52394 0.32644 0.0118 0.64984 0.0704 0.96098 0.17493l0.97014 0.32855-0.75362 2.4632c6e-3 6e-3 0.013 0.0132 0.0195 0.02l0.0314 0.0346 1.1382 0.22086-0.2312 1.3067c-0.12714 0.72066-0.45316 1.386-0.93716 1.9137l0.4521 0.30602 0.39647-0.0372 0.027 0.32355 1.4655 0.98901-0.53154 0.86795 0.71032 0.79656-0.0393 0.0397 1.1171 0.99736-0.29715 0.36739-0.0902 0.29683 0.31821 0.83329-0.78381 0.32939c-0.0967 0.16262-0.20494 0.31743-0.32417 0.46257l-0.0437 0.26176 1.1533 0.67549-0.50611 0.95312c-0.25928 0.48841-0.61937 0.90959-1.054 1.2324l-0.63801 0.47468-0.1601 0.59073c0.32712 0.68236 0.44768 1.4536 0.34522 2.2102l-0.1593 1.1802-2.3542-0.3536 0.10806 0.68342-1.2311 0.21291c-0.3191 0.0555-0.64421 0.065-0.96577 0.0284l0.0886 0.33607c0.1423 0.54225 0.16655 1.1115 0.0707 1.6649l-0.18314 1.0587-0.93119-0.17827c-0.21203 0.38558-0.48776 0.73206-0.81996 1.0191l-0.84976 0.73518-1.2943-1.6532-0.10526 0.13318-0.0691 1.1719 0.0374 0.85125-0.56055 0.28305-0.42826-0.36446-1.3165-3e-3 -2.5151-1.4541-0.68845 0.53814-0.70793-1.2495-0.32576-0.16742 0.0552 0.20833-0.23994-0.20206 0.12433-0.0363-0.42786-0.21751-8e-3 -6e-3v3e-3l-0.4954-0.25383-0.0918 9e-3 0.0107 0.76399v0.0914l0.1164 0.77027 0.38098 0.55358 0.091 0.4847 0.1311 0.7093 0.16963 1.6411-0.74169-0.10562-0.30431 1.4482-0.83863 1.0496c-0.0463 8.1e-4 -0.093 8e-4 -0.13944 0zm0.70793-6.5169 0.06-0.0171-0.0588 3e-3zm-27.221-30.612 0.0588-3e-3 1e-3 -0.0138z" color="#000000" color-rendering="auto" dominant-baseline="auto" fill="#21a527" image-rendering="auto" solid-color="#000000" stop-color="#000000" style="font-feature-settings:normal;font-variant-alternates:normal;font-variant-caps:normal;font-variant-east-asian:normal;font-variant-ligatures:normal;font-variant-numeric:normal;font-variant-position:normal;font-variation-settings:normal;inline-size:0;isolation:auto;mix-blend-mode:normal;paint-order:normal;shape-margin:0;shape-padding:0;text-decoration-color:#000000;text-decoration-line:none;text-decoration-style:solid;text-indent:0;text-orientation:mixed;text-transform:none;white-space:normal"/>
   <path d="m106.77 135.57-6.2585-7.3691-1.634 2.5187-2.2247-3.0505-0.0899-0.31678-5.317 8.6207 3.2225 4.4204v18.336h9.262v-18.473z" color="#000000" color-rendering="auto" dominant-baseline="auto" fill="#804600" image-rendering="auto" solid-color="#000000" stop-color="#000000" style="font-feature-settings:normal;font-variant-alternates:normal;font-variant-caps:normal;font-variant-east-asian:normal;font-variant-ligatures:normal;font-variant-numeric:normal;font-variant-position:normal;font-variation-settings:normal;inline-size:0;isolation:auto;mix-blend-mode:normal;paint-order:normal;shape-margin:0;shape-padding:0;text-decoration-color:#000000;text-decoration-line:none;text-decoration-style:solid;text-indent:0;text-orientation:mixed;text-transform:none;white-space:normal"/>
   <path d="m112.48 93.54c-0.77708 0.0209-1.526 0.3087-2.1329 0.8191l-0.10091 0.0835-0.36469-0.73059-1.9172 1.0587-0.0993-0.0726-1.5644-1.1439-0.18631 0.28097-0.12753-0.0568-0.0826 0.20665-2e-3 -2e-3 -0.87359 0.69762c-0.31117 0.24952-0.58117 0.55117-0.7989 0.89299l-1.0992-0.62163-0.38893-0.6233-0.32138 0.22085-1.2716-0.71974-0.524 1.0228c-0.27554 0.53699-0.42178 1.1363-0.42626 1.7463l-3e-3 0.40871-0.52837 0.87421c-0.0434 0.0726-0.0845 0.14689-0.12315 0.22252l-0.0302-0.0142-8e-3 -0.172-1.1457 0.0568-1.506-0.88673 0.0286-0.20374 0.38694-0.51392 0.20022-0.87462-0.40838 0.1123 0.0779-0.55859-1.2295-0.19079c-0.61121-0.0943-1.2352-0.0201-1.8107 0.21584l-0.93874 0.38534-1.3241-0.82537-0.58875 1.0429c-0.0596 0.10547-0.11423 0.21412-0.16368 0.32522l-1.1334-0.61411-0.68329 1.3919c-0.37659 0.76814-0.48834 1.6494-0.31662 2.4945l1e-3 7e-3 -0.26418 0.20832 0.42666 0.59491 0.0135 0.0626-8e-3 0.0221-1.0814 0.77777c-0.1558 0.11169-0.30275 0.23622-0.43977 0.37239l-0.9443-0.29056c-0.20993-0.0643-0.4252-0.10786-0.64278-0.13068l-0.23876-0.48135-0.0179-0.63917-0.29755 0.01-0.66065-1.3255-0.99992 0.55066c-0.4654 0.25646-0.87075 0.61801-1.1874 1.0587l-0.10686 0.14695-0.15017-0.0476-0.0238 0.0822-0.48944-0.0397-0.60424-1.0003-0.10408 0.0559-0.11958-0.24464-0.40243-0.65796-2.1695-1.7221-0.9308 0.93892c-0.32643 0.33011-0.58989 0.72249-0.77626 1.1564l-0.55657 0.86878-0.01668 0.13902-0.09018-7e-3 -0.03019 0.39285-1.6185-0.23379-0.10647 0.8095-0.0588 0.0626 0.05125-9e-3 -0.04211 0.32355c-0.05066 0.38777-0.04114 0.779 0.02304 1.1602l-0.95701 0.47301 0.05085 0.11523-0.03297 0.31561c-0.03442 0.32883-0.02459 0.65852 0.02304 0.9815l-0.5526 0.0109-0.49261 0.7715 0.25981 0.033-0.37422 0.91345c-0.0693 0.16993-0.12616 0.34511-0.17083 0.52394-0.32644 0.0118-0.64984 0.0709-0.96099 0.17534l-0.97012 0.32814 0.75361 2.4631c-0.0065 6e-3 -0.01299 0.0136-0.01946 0.0205l-0.03139 0.0346-1.1382 0.22085 0.23121 1.3067c0.12715 0.72067 0.45317 1.386 0.93715 1.9137l-0.45209 0.30602-0.39647-0.0376-0.02701 0.32355-1.4655 0.98901 0.53154 0.86795-0.71031 0.79697 0.03933 0.0392-1.1171 0.99737 0.29715 0.36738 0.09018 0.29683-0.31821 0.8333 0.78381 0.32939c0.09667 0.16262 0.20495 0.31743 0.32417 0.46257l0.0437 0.26176-1.1533 0.67549 0.50612 0.95311c0.25927 0.48841 0.61936 0.90959 1.0539 1.2324l0.63801 0.47468 0.1605 0.59116c-0.32718 0.6824-0.44809 1.4535-0.34562 2.2102l0.1593 1.1802 2.3542-0.35361-0.10806 0.68342 1.2311 0.21291c0.31909 0.0555 0.6442 0.065 0.96575 0.0284l-0.08859 0.33608c-0.14231 0.54224-0.16655 1.1115-0.07071 1.6649l0.18314 1.0587 0.93119-0.17827c0.21202 0.38555 0.48776 0.73206 0.81996 1.0191l0.84975 0.73518 1.2943-1.6532 0.10528 0.13317 0.06913 1.1719-0.03734 0.85125 0.56054 0.28305 0.42825-0.36446 1.3165-2e-3 2.5151-1.4541 0.68847 0.53813 0.70792-1.2495 0.32576-0.16741-0.0552 0.20832 0.23995-0.20206-0.12435-0.0363 0.42786-0.21751 8e-3 -7e-3v3e-3l0.49539-0.25383 0.0918 9e-3 -0.0107 0.76399v0.0914l-0.1164 0.77025-0.38098 0.55358-0.091 0.4847-0.1311 0.7093-0.16963 1.6411 0.7417-0.10562 0.3043 1.4482 0.83863 1.0496c0.0464 8.1e-4 0.093 8e-4 0.13944 0h8e-4c0.77707-0.0209 1.526-0.30869 2.1329-0.81909l0.1009-0.0835 0.36469 0.73059 1.9172-1.0587 0.0993 0.0726 1.5644 1.1439 0.18632-0.28097 0.12752 0.0568 0.0826-0.20665 2e-3 2e-3 0.87359-0.69761c0.31117-0.24952 0.58117-0.55118 0.7989-0.893l1.0992 0.62163 0.38893 0.6233 0.32139-0.22084 1.2716 0.71973 0.524-1.0228c0.27554-0.53698 0.42178-1.1363 0.42626-1.7463l3e-3 -0.40872 0.52836-0.87421c0.0434-0.0726 0.0845-0.14689 0.12315-0.22251l0.0302 0.0142 8e-3 0.172 1.1457-0.0568 1.506 0.88673-0.0286 0.20373-0.38694 0.51392-0.20022 0.87462 0.40839-0.1123-0.0779 0.55859 1.2295 0.19079c0.61122 0.0943 1.2352 0.0201 1.8107-0.21584l0.93874-0.38533 1.3241 0.82536 0.58874-1.0429c0.0596-0.10547 0.11423-0.21411 0.16368-0.32522l1.1334 0.61412 0.68329-1.3919c0.3766-0.76814 0.48834-1.6494 0.31663-2.4944l-2e-3 -7e-3 0.26418-0.20833-0.42667-0.59491-0.0135-0.063 8e-3 -0.0221 1.0814-0.77776c0.15581-0.11169 0.30276-0.23622 0.43978-0.3724l0.9443 0.29057c0.20992 0.0643 0.4252 0.10786 0.64278 0.13067l0.23875 0.48136 0.0179 0.63916 0.29755-0.01 0.66065 1.3255 0.99992-0.55066c0.4654-0.25647 0.87076-0.61802 1.1874-1.0587l0.10687-0.14695 0.15016 0.0476 0.0238-0.0822 0.48943 0.0392 0.60424 1.0003 0.10369-0.0559 0.11997 0.24506 0.40243 0.65795 2.1695 1.7221 0.9308-0.93891c0.32643-0.33012 0.58989-0.7225 0.77626-1.1564l0.55657-0.86878 0.0167-0.13902 0.0902 7e-3 0.0302-0.39285 1.6185 0.23379 0.10647-0.8095 0.0588-0.063-0.0513 9e-3 0.0421-0.32355c0.0507-0.38773 0.0411-0.77861-0.023-1.1598l0.95701-0.47301-0.0509-0.11522 0.033-0.31562c0.0344-0.32897 0.0247-0.6588-0.023-0.98192l0.5526-0.0109 0.49261-0.77151-0.25981-0.033 0.37422-0.91345c0.0693-0.16994 0.12617-0.34512 0.17083-0.52394 0.32644-0.0118 0.64984-0.0704 0.96098-0.17493l0.97013-0.32855-0.75362-2.4632c6e-3 -6e-3 0.013-0.0132 0.0195-0.02l0.0314-0.0346 1.1382-0.22085-0.23121-1.3067c-0.12714-0.72066-0.45316-1.386-0.93715-1.9137l0.45209-0.30602 0.39647 0.0372 0.027-0.32355 1.4655-0.98901-0.53154-0.86795 0.71031-0.79656-0.0393-0.0397 1.1171-0.99736-0.29715-0.36739-0.0902-0.29683 0.31821-0.83329-0.78381-0.32939c-0.0967-0.16262-0.20495-0.31743-0.32417-0.46257l-0.0437-0.26176 1.1533-0.67549-0.50612-0.95311c-0.25927-0.48841-0.61936-0.9096-1.054-1.2324l-0.63801-0.47468-0.16009-0.59073c0.32712-0.68236 0.44768-1.4536 0.34522-2.2102l-0.1593-1.1802-2.3542 0.3536 0.10805-0.68342-1.2311-0.21291c-0.3191-0.0555-0.64421-0.065-0.96576-0.0284l0.0886-0.33607c0.14231-0.54225 0.16656-1.1115 0.0707-1.6649l-0.18314-1.0587-0.93119 0.17827c-0.21202-0.38557-0.48775-0.73205-0.81996-1.0191l-0.84975-0.73518-1.2943 1.6532-0.10527-0.13318-0.0691-1.1719 0.0374-0.85125-0.56054-0.28305-0.42826 0.36446-1.3165 3e-3 -2.5151 1.4541-0.68846-0.53814-0.70793 1.2495-0.32576 0.16742 0.0552-0.20833-0.23994 0.20206 0.12434 0.0363-0.42786 0.21751-8e-3 6e-3v-3e-3l-0.4954 0.25383-0.0918-9e-3 0.0107-0.76399v-0.0914l0.1164-0.77026 0.38098-0.55358 0.091-0.4847 0.1311-0.7093 0.16963-1.6411-0.74169 0.10562-0.30431-1.4482-0.83863-1.0496c-0.0463-8.1e-4 -0.093-8e-4 -0.13944 0zm0.70792 6.5169 0.06 0.0171-0.0588-3e-3zm-27.221 30.612 0.0588 3e-3 1e-3 0.0138z" color="#000000" color-rendering="auto" dominant-baseline="auto" fill="#35b93b" image-rendering="auto" solid-color="#000000" stop-color="#000000" style="font-feature-settings:normal;font-variant-alternates:normal;font-variant-caps:normal;font-variant-east-asian:normal;font-variant-ligatures:normal;font-variant-numeric:normal;font-variant-position:normal;font-variation-settings:normal;inline-size:0;isolation:auto;mix-blend-mode:normal;paint-order:normal;shape-margin:0;shape-padding:0;text-decoration-color:#000000;text-decoration-line:none;text-decoration-style:solid;text-indent:0;text-orientation:mixed;text-transform:none;white-space:normal"/>
  </g>
  <g transform="matrix(-.84014 0 0 -.6614 297.92 350.85)" fill="#d2c100" fill-rule="evenodd" stroke="#d2c100" stroke-linecap="round">
   <path d="m255.14 307.66c-4.2636 2.5839-6.5354 7.2614-5.1379 10.78 1.4906 3.7533 6.6129 4.8126 11.434 2.3644 4.8207-2.4482 7.5234-7.4813 6.0327-11.235-1.4907-3.7533-6.6129-4.8126-11.434-2.3644-0.30129 0.153-0.61054 0.28216-0.89479 0.45442z" opacity=".9" stroke-width="1.9919"/>
   <path d="m250.04 316.22v42.137" stroke-width="2.7226"/>
  </g>
 </g>
</svg>
